<svg width="20" height="20" viewBox="0 0 20 20" fill="none" xmlns="http://www.w3.org/2000/svg">
<path d="M16.4917 3.5166C14.025 1.05827 10.025 1.05827 7.57504 3.5166C5.85004 5.22493 5.33337 7.68327 6.00004 9.84993L2.08337 13.7666C1.80837 14.0499 1.61671 14.6083 1.67504 15.0083L1.92504 16.8249C2.01671 17.4249 2.57504 17.9916 3.17504 18.0749L4.99171 18.3249C5.39171 18.3833 5.95004 18.1999 6.23337 17.9083L6.91671 17.2249C7.08337 17.0666 7.08337 16.7999 6.91671 16.6333L5.30004 15.0166C5.05837 14.7749 5.05837 14.3749 5.30004 14.1333C5.54171 13.8916 5.94171 13.8916 6.18337 14.1333L7.80837 15.7583C7.96671 15.9166 8.23337 15.9166 8.39171 15.7583L10.1584 13.9999C12.3167 14.6749 14.775 14.1499 16.4917 12.4416C18.95 9.98327 18.95 5.97494 16.4917 3.5166ZM12.0834 9.99994C10.9334 9.99994 10 9.0666 10 7.9166C10 6.7666 10.9334 5.83327 12.0834 5.83327C13.2334 5.83327 14.1667 6.7666 14.1667 7.9166C14.1667 9.0666 13.2334 9.99994 12.0834 9.99994Z" fill="#728196"/>
</svg>
