<svg width="20" height="20" viewBox="0 0 20 20" fill="none" xmlns="http://www.w3.org/2000/svg">
<path d="M14.1666 2.5H5.83329C3.33329 2.5 1.66663 3.75 1.66663 6.66667V12.5C1.66663 15.4167 3.33329 16.6667 5.83329 16.6667H8.80829C9.29996 16.6667 9.69996 16.2333 9.63329 15.7417C9.54996 15.15 9.56663 14.5333 9.69163 13.9C10.1333 11.7333 11.9166 10.0083 14.1 9.65C15.1916 9.475 16.2333 9.625 17.15 10.025C17.7083 10.2667 18.3333 9.88333 18.3333 9.275V6.66667C18.3333 3.75 16.6666 2.5 14.1666 2.5ZM14.5583 7.15833L11.95 9.24167C11.4 9.68333 10.7 9.9 9.99996 9.9C9.29996 9.9 8.59163 9.68333 8.04996 9.24167L5.44163 7.15833C5.17496 6.94167 5.13329 6.55 5.34163 6.275C5.55829 6.00833 5.94996 5.95833 6.21663 6.175L8.82496 8.25833C9.45829 8.76667 10.5333 8.76667 11.1666 8.25833L13.775 6.175C14.0416 5.95833 14.4416 6 14.65 6.275C14.8666 6.55 14.825 6.94167 14.5583 7.15833Z" fill="#728196"/>
<path d="M15 10.8333C12.7 10.8333 10.8334 12.6916 10.8334 14.9999C10.8334 17.2999 12.7 19.1666 15 19.1666C17.3084 19.1666 19.1667 17.2999 19.1667 14.9999C19.1667 12.6916 17.3084 10.8333 15 10.8333ZM16.7084 14.6249L16.4 14.9249L14.5834 16.7499C14.5 16.8249 14.3417 16.9083 14.225 16.9249L13.4084 17.0416C13.1167 17.0833 12.9084 16.8749 12.95 16.5833L13.0667 15.7666C13.0834 15.6499 13.1584 15.4916 13.2417 15.4083L15.0584 13.5999L15.3584 13.2916C15.5584 13.0916 15.7834 12.9583 16.0167 12.9583C16.2167 12.9583 16.4417 13.0499 16.6917 13.2916C17.25 13.8333 17.075 14.2583 16.7084 14.6249Z" fill="#728196"/>
</svg>
