<svg width="20" height="20" viewBox="0 0 20 20" fill="none" xmlns="http://www.w3.org/2000/svg">
<path d="M15.4167 3.42493L11.2583 1.8666C10.5667 1.60827 9.43334 1.60827 8.74167 1.8666L4.58334 3.42493C3.62501 3.78327 2.84167 4.9166 2.84167 5.93327V12.1249C2.84167 13.1083 3.49167 14.3999 4.28334 14.9916L7.86667 17.6666C9.04167 18.5499 10.975 18.5499 12.15 17.6666L15.7333 14.9916C16.525 14.3999 17.175 13.1083 17.175 12.1249V5.93327C17.1583 4.9166 16.375 3.78327 15.4167 3.42493ZM9.94168 5.85827C10.925 5.85827 11.725 6.65827 11.725 7.6416C11.725 8.60827 10.9667 9.38327 10.0083 9.4166H9.99167H9.97501C9.95834 9.4166 9.94167 9.4166 9.92501 9.4166C8.92501 9.38327 8.17501 8.60827 8.17501 7.6416C8.16668 6.65827 8.96668 5.85827 9.94168 5.85827ZM11.825 13.6333C11.3167 13.9666 10.6583 14.1416 10 14.1416C9.34167 14.1416 8.67501 13.9749 8.17501 13.6333C7.70001 13.3166 7.44167 12.8833 7.43334 12.4083C7.43334 11.9416 7.70001 11.4916 8.17501 11.1749C9.18334 10.5083 10.825 10.5083 11.8333 11.1749C12.3083 11.4916 12.575 11.9249 12.575 12.3999C12.5667 12.8666 12.3 13.3166 11.825 13.6333Z" fill="#728196"/>
</svg>
