<svg width="20" height="20" viewBox="0 0 20 20" fill="none" xmlns="http://www.w3.org/2000/svg">
<path d="M17.8333 10.7916L15.5166 11.9499C15.3583 12.0333 15.1666 11.9999 15.0333 11.8749L13.475 10.3166C13.3083 10.1499 13.3083 9.89162 13.475 9.72496L15.0583 8.1416C15.1833 8.0166 15.3833 7.98327 15.5416 8.06661L17.8333 9.21661C18.4916 9.53328 18.4916 10.4666 17.8333 10.7916Z" fill="#728196"/>
<path d="M13.5833 7.07505C13.8416 7.20005 13.8916 7.54173 13.6916 7.74173L12.3 9.13339L11.7083 9.72507C11.5416 9.89174 11.2833 9.89174 11.1166 9.72507L5.16664 3.77506C4.83331 3.44172 5.22498 2.90007 5.64998 3.1084L13.5833 7.07505Z" fill="#728196"/>
<path d="M1.66663 16.7916V2.89999C1.66663 2.53332 2.10829 2.34164 2.37496 2.59997L9.68329 9.69165C9.85829 9.85832 9.84996 10.1333 9.67496 10.3L2.36663 17.1C2.09996 17.35 1.66663 17.1583 1.66663 16.7916Z" fill="#728196"/>
<path d="M13.5582 12.9333L5.73323 16.85C5.30823 17.0584 4.91656 16.5167 5.2499 16.1834L11.1249 10.3083C11.2916 10.1417 11.5499 10.1417 11.7166 10.3083L13.6749 12.2667C13.8666 12.4667 13.8082 12.8083 13.5582 12.9333Z" fill="#728196"/>
</svg>
