<svg width="18" height="18" viewBox="0 0 18 18" fill="none" xmlns="http://www.w3.org/2000/svg">
<path d="M15.9525 6.88499C15.735 6.53999 15.5025 6.21749 15.2625 5.91749C14.985 5.56499 14.46 5.53499 14.145 5.84999L11.895 8.09999C12.06 8.59499 12.09 9.16499 11.94 9.75749C11.6775 10.815 10.8225 11.67 9.76501 11.9325C9.17251 12.0825 8.60251 12.0525 8.10751 11.8875C8.10751 11.8875 7.03501 12.96 6.26251 13.7325C5.88751 14.1075 6.00751 14.7675 6.51001 14.9625C7.31251 15.27 8.14501 15.4275 9.00001 15.4275C10.335 15.4275 11.6325 15.0375 12.8175 14.31C14.025 13.56 15.1125 12.4575 15.99 11.055C16.7025 9.92249 16.665 8.01749 15.9525 6.88499Z" fill="#728196"/>
<path d="M10.515 7.48501L7.48501 10.515C7.10251 10.125 6.85501 9.58501 6.85501 9.00001C6.85501 7.82251 7.81501 6.85501 9.00001 6.85501C9.58501 6.85501 10.125 7.10251 10.515 7.48501Z" fill="#728196"/>
<path d="M13.6875 4.31249L11.145 6.85499C10.5975 6.29999 9.84 5.96999 9 5.96999C7.32 5.96999 5.97 7.32749 5.97 8.99999C5.97 9.83999 6.3075 10.5975 6.855 11.145L4.32 13.6875H4.3125C3.48 13.0125 2.715 12.15 2.0625 11.13C1.3125 9.95249 1.3125 8.03999 2.0625 6.86249C2.9325 5.49749 3.9975 4.42499 5.1825 3.68999C6.3675 2.96999 7.665 2.57249 9 2.57249C10.6725 2.57249 12.2925 3.18749 13.6875 4.31249Z" fill="#728196"/>
<path d="M11.145 9C11.145 10.1775 10.185 11.145 8.99999 11.145C8.95499 11.145 8.91749 11.145 8.87249 11.13L11.13 8.8725C11.145 8.9175 11.145 8.955 11.145 9Z" fill="#728196"/>
<path d="M16.3275 1.6725C16.1025 1.4475 15.735 1.4475 15.51 1.6725L1.6725 15.5175C1.4475 15.7425 1.4475 16.11 1.6725 16.335C1.785 16.44 1.9275 16.5 2.0775 16.5C2.2275 16.5 2.37 16.44 2.4825 16.3275L16.3275 2.4825C16.56 2.2575 16.56 1.8975 16.3275 1.6725Z" fill="#728196"/>
</svg>
