<svg width="20" height="20" viewBox="0 0 20 20" fill="none" xmlns="http://www.w3.org/2000/svg">
<path d="M18.3333 13.4918C18.3333 16.5251 16.525 18.3334 13.4916 18.3334H12.5C12.0416 18.3334 11.6666 17.9584 11.6666 17.5001V12.6918C11.6666 12.4668 11.85 12.2751 12.075 12.2751L13.5416 12.2501C13.6583 12.2418 13.7583 12.1584 13.7833 12.0418L14.075 10.4501C14.1 10.3001 13.9833 10.1584 13.825 10.1584L12.05 10.1834C11.8166 10.1834 11.6333 10.0001 11.625 9.77509L11.5916 7.73341C11.5916 7.60008 11.7 7.48342 11.8416 7.48342L13.8416 7.45008C13.9833 7.45008 14.0916 7.34176 14.0916 7.20009L14.0583 5.20007C14.0583 5.05841 13.95 4.95008 13.8083 4.95008L11.5583 4.98342C10.175 5.00842 9.07497 6.14175 9.09997 7.52508L9.14163 9.81675C9.14996 10.0501 8.96664 10.2334 8.7333 10.2418L7.73329 10.2584C7.59163 10.2584 7.4833 10.3667 7.4833 10.5084L7.5083 12.0918C7.5083 12.2334 7.61662 12.3417 7.75829 12.3417L8.7583 12.3251C8.99163 12.3251 9.17495 12.5084 9.18328 12.7334L9.25828 17.4834C9.26661 17.9501 8.89161 18.3334 8.42495 18.3334H6.50829C3.47496 18.3334 1.66663 16.5251 1.66663 13.4834V6.50841C1.66663 3.47508 3.47496 1.66675 6.50829 1.66675H13.4916C16.525 1.66675 18.3333 3.47508 18.3333 6.50841V13.4918Z" fill="#728196"/>
</svg>
