<svg width="26" height="26" viewBox="0 0 26 26" fill="none" xmlns="http://www.w3.org/2000/svg">
<path d="M19.5434 14.6788C19.0884 15.123 18.8284 15.7622 18.8934 16.4447C18.9909 17.6147 20.0634 18.4705 21.2334 18.4705H23.2917V19.7597C23.2917 22.0022 21.4609 23.833 19.2184 23.833H6.78171C4.53921 23.833 2.70837 22.0022 2.70837 19.7597V12.4689C2.70837 10.2264 4.53921 8.39551 6.78171 8.39551H19.2184C21.4609 8.39551 23.2917 10.2264 23.2917 12.4689V14.0289H21.1034C20.4967 14.0289 19.9442 14.2672 19.5434 14.6788Z" stroke="white" stroke-width="1.5" stroke-linecap="round" stroke-linejoin="round"/>
<path d="M2.70837 13.4439V8.49314C2.70837 7.20397 3.49921 6.05559 4.70171 5.60059L13.3034 2.35059C14.6467 1.84143 16.0875 2.83813 16.0875 4.27896V8.39561" stroke="white" stroke-width="1.5" stroke-linecap="round" stroke-linejoin="round"/>
<path d="M24.4388 15.1343V17.366C24.4388 17.9618 23.9621 18.4493 23.3554 18.4709H21.2321C20.0621 18.4709 18.9896 17.6151 18.8921 16.4451C18.8271 15.7626 19.0871 15.1234 19.5421 14.6793C19.9429 14.2676 20.4954 14.0293 21.1021 14.0293H23.3554C23.9621 14.051 24.4388 14.5384 24.4388 15.1343Z" stroke="white" stroke-width="1.5" stroke-linecap="round" stroke-linejoin="round"/>
<path d="M7.58337 13H15.1667" stroke="white" stroke-width="1.5" stroke-linecap="round" stroke-linejoin="round"/>
</svg>
