<svg width="21" height="20" viewBox="0 0 21 20" fill="none" xmlns="http://www.w3.org/2000/svg">
<path fill-rule="evenodd" clip-rule="evenodd" d="M9.85537 0.221735C10.2345 -0.0739115 10.7655 -0.0739115 11.1446 0.221735L20.5946 7.59016C21.0523 7.94707 21.1348 8.60841 20.7788 9.06731C20.4228 9.5262 19.7631 9.60887 19.3053 9.25195L18.8999 8.93584V17.8947C18.8999 19.0574 17.9597 20 16.7999 20H4.19998C3.04019 20 2.09999 19.0574 2.09999 17.8947V8.93592L1.69468 9.25195C1.23694 9.60887 0.577249 9.5262 0.221227 9.06731C-0.134794 8.60841 -0.0523337 7.94707 0.405409 7.59016L9.85537 0.221735ZM9.44996 12.6316C8.87006 12.6316 8.39996 13.1029 8.39996 13.6842V20H12.5999V13.6842C12.5999 13.1029 12.1298 12.6316 11.5499 12.6316H9.44996Z" fill="#728196"/>
</svg>
