<svg width="20" height="20" viewBox="0 0 20 20" fill="none" xmlns="http://www.w3.org/2000/svg">
<path d="M9.20829 12.4584L7.66663 14.0001C7.34163 14.3251 6.82496 14.3251 6.49163 14.0084C6.39996 13.9167 6.30829 13.8334 6.21663 13.7417C5.35829 12.8751 4.58329 11.9667 3.89163 11.0167C3.20829 10.0667 2.65829 9.11675 2.25829 8.17508C1.86663 7.22508 1.66663 6.31675 1.66663 5.45008C1.66663 4.88341 1.76663 4.34175 1.96663 3.84175C2.16663 3.33341 2.48329 2.86675 2.92496 2.45008C3.45829 1.92508 4.04163 1.66675 4.65829 1.66675C4.89163 1.66675 5.12496 1.71675 5.33329 1.81675C5.54996 1.91675 5.74163 2.06675 5.89163 2.28341L7.82496 5.00841C7.97496 5.21675 8.08329 5.40841 8.15829 5.59175C8.23329 5.76675 8.27496 5.94175 8.27496 6.10008C8.27496 6.30008 8.21663 6.50008 8.09996 6.69175C7.99163 6.88341 7.83329 7.08341 7.63329 7.28341L6.99996 7.94175C6.90829 8.03341 6.86663 8.14175 6.86663 8.27508C6.86663 8.34175 6.87496 8.40008 6.89163 8.46675C6.91663 8.53341 6.94163 8.58341 6.95829 8.63341C7.10829 8.90841 7.36663 9.26675 7.73329 9.70008C8.10829 10.1334 8.50829 10.5751 8.94163 11.0167C9.02496 11.1001 9.11663 11.1834 9.19996 11.2667C9.53329 11.5917 9.54163 12.1251 9.20829 12.4584Z" fill="#728196"/>
<path d="M18.3083 15.275C18.3083 15.5083 18.2667 15.75 18.1833 15.9833C18.1583 16.05 18.1333 16.1166 18.1 16.1833C17.9583 16.4833 17.775 16.7666 17.5333 17.0333C17.125 17.4833 16.675 17.8083 16.1667 18.0166C16.1583 18.0166 16.15 18.025 16.1417 18.025C15.65 18.225 15.1167 18.3333 14.5417 18.3333C13.6917 18.3333 12.7833 18.1333 11.825 17.725C10.8667 17.3166 9.90833 16.7666 8.95833 16.075C8.63333 15.8333 8.30833 15.5916 8 15.3333L10.725 12.6083C10.9583 12.7833 11.1667 12.9166 11.3417 13.0083C11.3833 13.025 11.4333 13.05 11.4917 13.075C11.5583 13.1 11.625 13.1083 11.7 13.1083C11.8417 13.1083 11.95 13.0583 12.0417 12.9666L12.675 12.3416C12.8833 12.1333 13.0833 11.975 13.275 11.875C13.4667 11.7583 13.6583 11.7 13.8667 11.7C14.025 11.7 14.1917 11.7333 14.375 11.8083C14.5583 11.8833 14.75 11.9916 14.9583 12.1333L17.7167 14.0916C17.9333 14.2416 18.0833 14.4166 18.175 14.625C18.2583 14.8333 18.3083 15.0416 18.3083 15.275Z" fill="#728196"/>
</svg>
