<svg width="20" height="20" viewBox="0 0 20 20" fill="none" xmlns="http://www.w3.org/2000/svg">
<path d="M10 14.4583C10.7502 14.4583 11.3583 13.8502 11.3583 13.1C11.3583 12.3498 10.7502 11.7417 10 11.7417C9.24981 11.7417 8.64166 12.3498 8.64166 13.1C8.64166 13.8502 9.24981 14.4583 10 14.4583Z" fill="#728196"/>
<path d="M15.2333 7.94166V6.89999C15.2333 4.64999 14.6917 1.66666 9.99999 1.66666C5.30832 1.66666 4.76666 4.64999 4.76666 6.89999V7.94166C2.43332 8.23332 1.66666 9.41666 1.66666 12.325V13.875C1.66666 17.2917 2.70832 18.3333 6.12499 18.3333H13.875C17.2917 18.3333 18.3333 17.2917 18.3333 13.875V12.325C18.3333 9.41666 17.5667 8.23332 15.2333 7.94166ZM9.99999 15.6167C8.60832 15.6167 7.48332 14.4833 7.48332 13.1C7.48332 11.7083 8.61666 10.5833 9.99999 10.5833C11.3833 10.5833 12.5167 11.7167 12.5167 13.1C12.5167 14.4917 11.3917 15.6167 9.99999 15.6167ZM6.12499 7.86666C6.05832 7.86666 5.99999 7.86666 5.93332 7.86666V6.89999C5.93332 4.45832 6.62499 2.83332 9.99999 2.83332C13.375 2.83332 14.0667 4.45832 14.0667 6.89999V7.87499C14 7.87499 13.9417 7.87499 13.875 7.87499H6.12499V7.86666Z" fill="#728196"/>
</svg>
