<svg width="20" height="20" viewBox="0 0 20 20" fill="none" xmlns="http://www.w3.org/2000/svg">
<path d="M10 1.66675C7.70004 1.66675 5.83337 3.53341 5.83337 5.83341C5.83337 8.13341 7.70004 10.0001 10 10.0001C12.3 10.0001 14.1667 8.13341 14.1667 5.83341C14.1667 3.53341 12.3 1.66675 10 1.66675ZM11.8084 5.42508L9.55837 7.67508C9.47504 7.75841 9.30004 7.84175 9.18337 7.86675L8.32504 7.98341C8.00837 8.02508 7.79171 7.80841 7.84171 7.50008L7.96671 6.64175C7.98337 6.52508 8.06671 6.35008 8.15837 6.26675L10.4084 4.01675C10.7917 3.63341 11.25 3.45008 11.8167 4.01675C12.375 4.59175 12.1917 5.04175 11.8084 5.42508Z" fill="#728196"/>
<path d="M10 11.6667C5.82505 11.6667 2.42505 14.4667 2.42505 17.9167C2.42505 18.1501 2.60838 18.3334 2.84172 18.3334H17.1584C17.3917 18.3334 17.575 18.1501 17.575 17.9167C17.575 14.4667 14.175 11.6667 10 11.6667Z" fill="#728196"/>
</svg>
