<svg width="30" height="30" viewBox="0 0 30 30" fill="none" xmlns="http://www.w3.org/2000/svg">
<path d="M2.5 12.1875C1.9875 12.1875 1.5625 11.7625 1.5625 11.25V8.125C1.5625 4.5 4.5125 1.5625 8.125 1.5625H11.25C11.7625 1.5625 12.1875 1.9875 12.1875 2.5C12.1875 3.0125 11.7625 3.4375 11.25 3.4375H8.125C5.5375 3.4375 3.4375 5.5375 3.4375 8.125V11.25C3.4375 11.7625 3.0125 12.1875 2.5 12.1875Z" fill="#29313E"/>
<path d="M27.5 12.1875C26.9875 12.1875 26.5625 11.7625 26.5625 11.25V8.125C26.5625 5.5375 24.4625 3.4375 21.875 3.4375H18.75C18.2375 3.4375 17.8125 3.0125 17.8125 2.5C17.8125 1.9875 18.2375 1.5625 18.75 1.5625H21.875C25.4875 1.5625 28.4375 4.5 28.4375 8.125V11.25C28.4375 11.7625 28.0125 12.1875 27.5 12.1875Z" fill="#29313E"/>
<path d="M21.875 28.4375H20C19.4875 28.4375 19.0625 28.0125 19.0625 27.5C19.0625 26.9875 19.4875 26.5625 20 26.5625H21.875C24.4625 26.5625 26.5625 24.4625 26.5625 21.875V20C26.5625 19.4875 26.9875 19.0625 27.5 19.0625C28.0125 19.0625 28.4375 19.4875 28.4375 20V21.875C28.4375 25.5 25.4875 28.4375 21.875 28.4375Z" fill="#29313E"/>
<path d="M11.25 28.4375H8.125C4.5125 28.4375 1.5625 25.5 1.5625 21.875V18.75C1.5625 18.2375 1.9875 17.8125 2.5 17.8125C3.0125 17.8125 3.4375 18.2375 3.4375 18.75V21.875C3.4375 24.4625 5.5375 26.5625 8.125 26.5625H11.25C11.7625 26.5625 12.1875 26.9875 12.1875 27.5C12.1875 28.0125 11.7625 28.4375 11.25 28.4375Z" fill="#29313E"/>
<path d="M17.5 22.8125H12.5C9.475 22.8125 7.8125 21.15 7.8125 18.125V11.875C7.8125 8.85 9.475 7.1875 12.5 7.1875H17.5C20.525 7.1875 22.1875 8.85 22.1875 11.875V18.125C22.1875 21.15 20.525 22.8125 17.5 22.8125ZM12.5 9.0625C10.525 9.0625 9.6875 9.9 9.6875 11.875V18.125C9.6875 20.1 10.525 20.9375 12.5 20.9375H17.5C19.475 20.9375 20.3125 20.1 20.3125 18.125V11.875C20.3125 9.9 19.475 9.0625 17.5 9.0625H12.5Z" fill="#29313E"/>
<path d="M23.75 15.9375H6.25C5.7375 15.9375 5.3125 15.5125 5.3125 15C5.3125 14.4875 5.7375 14.0625 6.25 14.0625H23.75C24.2625 14.0625 24.6875 14.4875 24.6875 15C24.6875 15.5125 24.2625 15.9375 23.75 15.9375Z" fill="#29313E"/>
</svg>
