<svg width="20" height="20" viewBox="0 0 20 20" fill="none" xmlns="http://www.w3.org/2000/svg">
<path d="M14.1667 2.91666H5.83332C3.33332 2.91666 1.66666 4.16666 1.66666 7.08332V12.9167C1.66666 15.8333 3.33332 17.0833 5.83332 17.0833H14.1667C16.6667 17.0833 18.3333 15.8333 18.3333 12.9167V7.08332C18.3333 4.16666 16.6667 2.91666 14.1667 2.91666ZM14.5583 7.99166L11.95 10.075C11.4 10.5167 10.7 10.7333 9.99999 10.7333C9.29999 10.7333 8.59166 10.5167 8.04999 10.075L5.44166 7.99166C5.17499 7.77499 5.13332 7.37499 5.34166 7.10832C5.55832 6.84166 5.94999 6.79166 6.21666 7.00832L8.82499 9.09166C9.45832 9.59999 10.5333 9.59999 11.1667 9.09166L13.775 7.00832C14.0417 6.79166 14.4417 6.83332 14.65 7.10832C14.8667 7.37499 14.825 7.77499 14.5583 7.99166Z" fill="#728196"/>
</svg>
