<svg width="22" height="22" viewBox="0 0 22 22" fill="none" xmlns="http://www.w3.org/2000/svg">
<path d="M17.8843 5.36242L12.4393 2.21825C11.5501 1.70492 10.4501 1.70492 9.55176 2.21825L4.11592 5.36242C3.22676 5.87575 2.67676 6.82909 2.67676 7.86492V14.1349C2.67676 15.1616 3.22676 16.1149 4.11592 16.6374L9.56092 19.7816C10.4501 20.2949 11.5501 20.2949 12.4484 19.7816L17.8934 16.6374C18.7826 16.1241 19.3326 15.1708 19.3326 14.1349V7.86492C19.3234 6.82909 18.7734 5.88492 17.8843 5.36242ZM11.0001 6.72825C12.1826 6.72825 13.1359 7.68159 13.1359 8.86409C13.1359 10.0466 12.1826 10.9999 11.0001 10.9999C9.81759 10.9999 8.86426 10.0466 8.86426 8.86409C8.86426 7.69075 9.81759 6.72825 11.0001 6.72825ZM13.4568 15.2716H8.54342C7.80092 15.2716 7.37009 14.4466 7.78259 13.8324C8.40592 12.9066 9.61592 12.2833 11.0001 12.2833C12.3843 12.2833 13.5943 12.9066 14.2176 13.8324C14.6301 14.4374 14.1901 15.2716 13.4568 15.2716Z" fill="#728196"/>
</svg>
